<svg width="238" height="248" viewBox="0 0 238 248" fill="none" xmlns="http://www.w3.org/2000/svg">
<path d="M211.448 188.52L211.444 188.631L217.031 247.717H176.257L170.972 211.428L168.646 246.786L126.774 246.321L131.222 199.899L135.005 178.382V178.377L135.572 175.139H210.336L210.434 176.312L211.448 188.52Z" fill="#2F2E41"/>
<path d="M103.694 222.772C108.013 223.558 112.516 218.695 113.752 211.909C114.293 208.939 114.118 206.092 113.389 203.765L114.051 199.853L125.163 147.23C125.163 147.23 145.624 106.3 145.623 99.1946C145.623 92.089 139.705 88.6044 139.705 88.6044L131.696 88.6793L106.581 150.02L102.058 195.348L101.326 201.567C99.8223 203.488 98.6551 206.09 98.1141 209.06C96.8777 215.846 99.3762 221.985 103.694 222.772Z" fill="#FFB6B6"/>
<path d="M185.162 63.2487L177.718 46.0347L153.526 50.2219L151.897 70.4745L185.162 63.2487Z" fill="#FFB6B6"/>
<path opacity="0.1" d="M185.162 63.2487L177.718 46.0347L153.526 50.2219L151.897 70.4745L185.162 63.2487Z" fill="black"/>
<path d="M237.734 99.0722C237.734 99.0722 220.52 66.9706 217.264 63.7139C215.814 62.2641 213.535 62.244 211.451 62.6665L187.488 54.4091L179.366 49.8455L178.831 58.5278L152.165 63.3139C152.313 58.0191 153.06 56.0051 153.06 56.0051L143.29 67.4359L124.215 76.7407L124.226 76.8244C122.826 77.3131 121.499 78.1492 120.493 79.5321C116.771 84.6498 106.536 146.992 106.536 146.992L128.402 151.644L131.378 132.97L133.52 149.784L135.148 181.187C135.148 181.187 164.924 206.776 179.346 197.471C193.769 188.166 211.448 188.631 211.448 188.631L211.889 174.075C212.203 173.573 212.378 173.278 212.378 173.278L211.913 121.644V107.904C215.458 112.842 219.735 117.089 224.707 119.078C240.991 125.591 237.734 99.0723 237.734 99.0723V99.0722Z" fill="#E6E6E6"/>
<path d="M163.093 53.2507C175.385 53.2507 185.35 43.2862 185.35 30.9943C185.35 18.7024 175.385 8.73785 163.093 8.73785C150.801 8.73785 140.837 18.7024 140.837 30.9943C140.837 43.2862 150.801 53.2507 163.093 53.2507Z" fill="#FFB6B6"/>
<path d="M179.06 37.2841C179.06 37.2841 180.995 30.5104 185.35 30.9943C189.704 31.4781 190.672 27.6074 189.704 25.6721C188.737 23.7367 186.801 14.06 186.801 14.06C186.801 14.06 187.769 7.28633 181.963 6.31866C176.157 5.35099 174.222 4.38332 173.254 2.44797C172.286 0.512632 157.771 -1.42271 152.933 1.48031C148.095 4.38332 144.224 9.95314 140.837 11.5227C137.45 13.0924 134.547 15.9954 136.483 20.8337C138.418 25.6721 141.225 35.1349 141.225 35.1349C141.225 35.1349 146.159 33.4134 147.127 36.3165C148.095 39.2195 144.224 35.3488 149.062 27.6074C153.901 19.8661 153.901 12.1247 161.642 15.0277C169.383 17.9307 178.092 16.963 177.125 22.7691C176.157 28.5751 179.06 37.2841 179.06 37.2841V37.2841Z" fill="#2F2E41"/>
<path d="M177.699 213.724H8.66894C3.88879 213.724 0 209.835 0 205.055V115.267C0 110.487 3.88879 106.598 8.66894 106.598H177.699C182.479 106.598 186.368 110.487 186.368 115.267V205.055C186.368 209.835 182.479 213.724 177.699 213.724Z" fill="white"/>
<path d="M177.699 213.724H8.66894C3.88879 213.724 0 209.835 0 205.055V115.267C0 110.487 3.88879 106.598 8.66894 106.598H177.699C182.479 106.598 186.368 110.487 186.368 115.267V205.055C186.368 209.835 182.479 213.724 177.699 213.724ZM8.66894 108.046C4.68719 108.046 1.44765 111.285 1.44765 115.267V205.055C1.44765 209.037 4.68719 212.277 8.66894 212.277H177.699C181.68 212.277 184.92 209.037 184.92 205.055V115.267C184.92 111.285 181.68 108.046 177.699 108.046H8.66894Z" fill="#3F3D56"/>
<path d="M164.653 117.456C165.852 117.456 166.824 116.483 166.824 115.284C166.824 114.085 165.852 113.113 164.653 113.113C163.454 113.113 162.481 114.085 162.481 115.284C162.481 116.483 163.454 117.456 164.653 117.456Z" fill="#3F3D56"/>
<path d="M170.443 117.456C171.642 117.456 172.614 116.483 172.614 115.284C172.614 114.085 171.642 113.113 170.443 113.113C169.244 113.113 168.271 114.085 168.271 115.284C168.271 116.483 169.244 117.456 170.443 117.456Z" fill="#3F3D56"/>
<path d="M176.234 117.456C177.433 117.456 178.405 116.483 178.405 115.284C178.405 114.085 177.433 113.113 176.234 113.113C175.035 113.113 174.062 114.085 174.062 115.284C174.062 116.483 175.035 117.456 176.234 117.456Z" fill="#3F3D56"/>
<path d="M12.3055 150.39C11.7068 150.39 11.2197 150.877 11.2197 151.475C11.2197 151.767 11.3325 152.037 11.5371 152.237C11.7435 152.448 12.0139 152.561 12.3055 152.561H174.787C175.385 152.561 175.872 152.074 175.872 151.475C175.872 151.184 175.76 150.913 175.555 150.714C175.349 150.503 175.078 150.39 174.787 150.39H12.3055Z" fill="#E6E6E6"/>
<path d="M154.519 150.028V152.923H12.3051C11.907 152.923 11.5451 152.764 11.2845 152.496C11.0166 152.235 10.8574 151.874 10.8574 151.475C10.8574 150.679 11.5089 150.028 12.3051 150.028H154.519Z" fill="#009EDD"/>
<path d="M172.977 144.599H158.501C156.904 144.599 155.605 143.301 155.605 141.704C155.605 140.107 156.904 138.808 158.501 138.808H172.977C174.574 138.808 175.873 140.107 175.873 141.704C175.873 143.301 174.574 144.599 172.977 144.599Z" fill="#E6E6E6"/>
<path d="M78.1553 129.399H13.3904C11.794 129.399 10.4951 128.1 10.4951 126.503C10.4951 124.907 11.794 123.608 13.3904 123.608H78.1553C79.7517 123.608 81.0506 124.907 81.0506 126.503C81.0506 128.1 79.7517 129.399 78.1553 129.399Z" fill="#E6E6E6"/>
<path d="M12.3055 182.962C11.7068 182.962 11.2197 183.449 11.2197 184.048C11.2197 184.339 11.3325 184.609 11.5371 184.809C11.7435 185.02 12.0139 185.133 12.3055 185.133H174.787C175.385 185.133 175.872 184.646 175.872 184.048C175.872 183.756 175.76 183.486 175.555 183.286C175.349 183.075 175.078 182.962 174.787 182.962H12.3055Z" fill="#E6E6E6"/>
<path d="M98.7847 182.6V185.495H12.3051C11.907 185.495 11.5451 185.336 11.2845 185.068C11.0166 184.808 10.8574 184.446 10.8574 184.048C10.8574 183.251 11.5089 182.6 12.3051 182.6H98.7847Z" fill="#009EDD"/>
<path d="M172.977 177.171H158.501C156.904 177.171 155.605 175.873 155.605 174.276C155.605 172.679 156.904 171.381 158.501 171.381H172.977C174.574 171.381 175.873 172.679 175.873 174.276C175.873 175.873 174.574 177.171 172.977 177.171Z" fill="#E6E6E6"/>
<path d="M198.32 54.9638C210.84 54.9638 220.989 45.0281 220.989 32.7719C220.989 20.5157 210.84 10.58 198.32 10.58C185.8 10.58 175.65 20.5157 175.65 32.7719C175.65 45.0281 185.8 54.9638 198.32 54.9638Z" fill="#009EDD"/>
<path d="M206.014 21.578C202.996 27.0735 199.978 32.5691 196.96 38.0646C195.036 34.666 193.123 31.2614 191.195 27.8655C190.529 26.6927 188.718 27.7476 189.386 28.9233C191.621 32.86 193.833 36.8097 196.068 40.7463C196.45 41.4194 197.5 41.435 197.878 40.7463C201.193 34.7095 204.508 28.6726 207.824 22.6358C208.473 21.4529 206.664 20.3942 206.014 21.578Z" fill="white"/>
<path d="M229.614 91.2671L207.028 80.4626C207.028 80.4626 206.121 73.231 201.885 70.6516C201.165 68.9337 200.337 67.0464 199.584 65.5511C197.723 61.8529 200.514 54.8743 198.188 54.8743C195.862 54.8743 192.423 62.2137 192.605 64.1792C192.745 65.6879 193.992 68.322 194.25 70.6278C191.413 71.6976 189.125 73.5313 187.62 74.9913C186.318 76.2548 185.834 78.1399 186.343 79.8813C187.818 84.9278 191.503 95.3503 196.793 95.3503C203.771 95.3503 205.632 93.9546 205.632 93.9546C205.632 93.9546 220.055 112.099 230.755 113.495C241.456 114.89 229.614 91.2671 229.614 91.2671V91.2671Z" fill="#FFB6B6"/>
</svg>
