<svg width="12" height="13" viewBox="0 0 12 13" fill="none" xmlns="http://www.w3.org/2000/svg">
<path d="M5.93376 5.00001H7.06709V3.30001H8.76709V2.16667H7.06709V0.466675H5.93376V2.16667H4.23376V3.30001H5.93376V5.00001ZM3.66709 10.1C3.04376 10.1 2.53942 10.61 2.53942 11.2333C2.53942 11.8567 3.04376 12.3667 3.66709 12.3667C4.29042 12.3667 4.80042 11.8567 4.80042 11.2333C4.80042 10.61 4.29042 10.1 3.66709 10.1ZM9.33376 10.1C8.71042 10.1 8.20609 10.61 8.20609 11.2333C8.20609 11.8567 8.71042 12.3667 9.33376 12.3667C9.95709 12.3667 10.4671 11.8567 10.4671 11.2333C10.4671 10.61 9.95709 10.1 9.33376 10.1ZM3.76342 8.25834L3.78042 8.19034L4.29042 7.26668H8.51209C8.93709 7.26668 9.31109 7.03434 9.50376 6.68301L11.6911 2.71068L10.7051 2.16667H10.6994L10.0761 3.30001L8.51209 6.13334H4.53409L4.46042 5.98034L3.19109 3.30001L2.65276 2.16667L2.12009 1.03334H0.26709V2.16667H1.40042L3.44042 6.46768L2.67542 7.85601C2.58476 8.01468 2.53376 8.20168 2.53376 8.40001C2.53376 9.02334 3.04376 9.53334 3.66709 9.53334H10.4671V8.40001H3.90509C3.83142 8.40001 3.76342 8.33768 3.76342 8.25834Z" fill="white"/>
</svg>
